{
  "accessors": [
    {
      "bufferView": 2,
      "componentType": 5126,
      "count": 51879,
      "max": [
        1072.005615234375,
        2332.527099609375,
        842.6953125
      ],
      "min": [
        -1070.2843017578125,
        551.7766723632813,
        -262.4041442871094
      ],
      "type": "VEC3"
    },
    {
      "bufferView": 2,
      "byteOffset": 622548,
      "componentType": 5126,
      "count": 51879,
      "max": [
        0.999986469745636,
        0.9980700016021729,
        0.9999614953994751
      ],
      "min": [
        -0.9998970031738281,
        -0.9998460412025452,
        -0.9999564290046692
      ],
      "type": "VEC3"
    },
    {
      "bufferView": 1,
      "componentType": 5126,
      "count": 51879,
      "max": [
        0.9992679953575134,
        0.9992539882659912
      ],
      "min": [
        0.0007319999858736992,
        0.0007459999760612845
      ],
      "type": "VEC2"
    },
    {
      "bufferView": 0,
      "componentType": 5125,
      "count": 199800,
      "type": "SCALAR"
    }
  ],
  "asset": {
    "extras": {
      "author": "Johndoh (https://sketchfab.com/Johndoh)",
      "license": "CC-BY-4.0 (http://creativecommons.org/licenses/by/4.0/)",
      "source": "https://sketchfab.com/3d-models/city-night-10aa62d80fee4b4aafc5eb412f13579f",
      "title": "City Night"
    },
    "generator": "Sketchfab-12.66.0",
    "version": "2.0"
  },
  "bufferViews": [
    {
      "buffer": 0,
      "byteLength": 799200,
      "name": "floatBufferViews",
      "target": 34963
    },
    {
      "buffer": 0,
      "byteLength": 415032,
      "byteOffset": 799200,
      "byteStride": 8,
      "name": "floatBufferViews",
      "target": 34962
    },
    {
      "buffer": 0,
      "byteLength": 1245096,
      "byteOffset": 1214232,
      "byteStride": 12,
      "name": "floatBufferViews",
      "target": 34962
    }
  ],
  "buffers": [
    {
      "byteLength": 2459328,
      "uri": "scene.bin"
    }
  ],
  "extensionsRequired": [
    "KHR_materials_pbrSpecularGlossiness"
  ],
  "extensionsUsed": [
    "KHR_materials_pbrSpecularGlossiness"
  ],
  "images": [
    {
      "uri": "textures/JapanNight.1001_diffuse.jpeg"
    }
  ],
  "materials": [
    {
      "doubleSided": true,
      "extensions": {
        "KHR_materials_pbrSpecularGlossiness": {
          "diffuseFactor": [
            0.6175685975609756,
            0.6175685975609756,
            0.6175685975609756,
            1.0
          ],
          "diffuseTexture": {
            "index": 0
          },
          "glossinessFactor": 0.6724466463414634,
          "specularFactor": [
            0.0,
            0.0,
            0.0
          ]
        }
      },
      "name": "JapanNight.1001"
    }
  ],
  "meshes": [
    {
      "name": "Object_0",
      "primitives": [
        {
          "attributes": {
            "NORMAL": 1,
            "POSITION": 0,
            "TEXCOORD_0": 2
          },
          "indices": 3,
          "material": 0,
          "mode": 4
        }
      ]
    }
  ],
  "nodes": [
    {
      "children": [
        1
      ],
      "matrix": [
        0.9510396718978882,
        -0.002189102582633564,
        0.3090611398220062,
        0.0,
        0.24577808380126953,
        -0.6009476780891416,
        -0.760562300682068,
        0.0,
        0.18739452958106995,
        0.7992853522300721,
        -0.5709870457649229,
        0.0,
        -408.77862548828125,
        924.89599609375,
        -179.90321350097636,
        1.0
      ],
      "name": "Sketchfab_model"
    },
    {
      "children": [
        2
      ],
      "name": "JapanNight.obj.cleaner.materialmerger.gles"
    },
    {
      "mesh": 0,
      "name": "Object_2"
    }
  ],
  "samplers": [
    {
      "magFilter": 9729,
      "minFilter": 9987,
      "wrapS": 10497,
      "wrapT": 10497
    }
  ],
  "scene": 0,
  "scenes": [
    {
      "name": "Sketchfab_Scene",
      "nodes": [
        0
      ]
    }
  ],
  "textures": [
    {
      "sampler": 0,
      "source": 0
    }
  ]
}
